# xmcd
#
# Track frame offsets:
#	150
#	15655
#	26327
#	41465
#	53255
#	68402
#	83847
#	96425
#	109445
#	122625
#	134017
#	154160
#	167350
#	180565
#
# Disc length: 2568 seconds
#
# Revision: 1
# Processed by: cddbd v1.4PL0 Copyright (c) Steve Scherf et al.
# Submitted via: EasyCDDAExtractor 6.0.0.1
#
DISCID=a80a060e
DTITLE=Lourenço and Lourival - Meu Reino Encantado(dimas som)
DYEAR=2001
DGENRE=Sertaneja
TTITLE0=Meu Reino Encantado-Lourenço and Lourival
TTITLE1=Solidão (Che Picazu Mi)-Lourenço and Lourival
TTITLE2=Rainha do Paraná-Lourenço and Lourival
TTITLE3=A Caneta e a Enxada-Lourenço and Lourival
TTITLE4=Vou Tomá um Pingão-Lourenço and Lourival
TTITLE5=Rio de Lagrimas-Lourenço and Lourival
TTITLE6=Curitibana-Lourenço and Lourival
TTITLE7=Lar Feliz-Lourenço and Lourival
TTITLE8=Encanto da Natureza-Lourenço and Lourival
TTITLE9=Cana Verde-Lourenço and Lourival
TTITLE10=A Sementinha-Lourenço and Lourival
TTITLE11=Relogio Quebrado-Lourenço and Lourival
TTITLE12=O Menino Caçador-Lourenço and Lourival
TTITLE13=Desde que te vi (En'de que te vi)-Lourenço and Lourival
EXTD=
EXTT0=
EXTT1=
EXTT2=
EXTT3=
EXTT4=
EXTT5=
EXTT6=
EXTT7=
EXTT8=
EXTT9=
EXTT10=
EXTT11=
EXTT12=
EXTT13=
PLAYORDER=
